<?xml version="1.0" standalone="no"?>
<!DOCTYPE svg PUBLIC "-//W3C//DTD SVG 20010904//EN"
 "http://www.w3.org/TR/2001/REC-SVG-20010904/DTD/svg10.dtd">
<svg version="1.0" xmlns="http://www.w3.org/2000/svg"
 width="500.000000pt" height="500.000000pt" viewBox="0 0 500.000000 500.000000"
 preserveAspectRatio="xMidYMid meet">
<metadata>
Created by potrace 1.15, written by Peter Selinger 2001-2017
</metadata>
<g transform="translate(0.000000,500.000000) scale(0.100000,-0.100000)"
fill="#000000" stroke="none">
<path d="M1894 4865 c73 -37 126 -80 126 -102 0 -7 -12 -16 -26 -19 -19 -5
-50 4 -118 36 -160 74 -248 91 -393 74 -29 -4 -53 -10 -53 -14 0 -4 21 -13 48
-20 69 -17 134 -48 127 -60 -10 -16 -49 -12 -158 16 -130 34 -267 38 -342 10
-71 -26 -74 -34 -19 -40 80 -10 176 -40 188 -58 8 -13 5 -22 -13 -42 -25 -27
-66 -38 -210 -56 -93 -11 -150 -34 -196 -78 -44 -43 -77 -83 -72 -88 3 -3 40
4 83 16 43 11 101 20 128 20 l51 -1 -27 -22 c-15 -12 -72 -41 -126 -65 -119
-51 -176 -92 -202 -143 -19 -37 -26 -69 -15 -69 3 0 22 8 43 19 48 24 112 44
118 38 13 -12 -21 -50 -79 -88 -111 -75 -139 -112 -153 -204 -8 -56 -12 -56
66 9 21 18 36 24 38 17 5 -16 -22 -55 -79 -116 -59 -63 -79 -103 -79 -156 l0
-42 38 41 c44 48 77 58 38 12 -13 -17 -40 -60 -58 -97 -26 -53 -34 -83 -37
-140 -4 -80 8 -94 28 -35 16 45 72 142 83 142 4 0 8 -11 8 -24 0 -29 41 -91
60 -91 8 0 32 45 59 113 25 61 48 112 51 112 7 0 42 -54 41 -63 -2 -8 24 -37
32 -37 3 0 8 13 12 29 21 95 118 170 233 179 l66 5 -22 -28 c-12 -15 -22 -40
-22 -55 0 -26 2 -27 65 -33 77 -7 135 -35 168 -79 48 -66 47 -68 -53 -68 -50
0 -90 -3 -90 -6 0 -4 18 -27 40 -51 23 -24 50 -64 60 -89 22 -51 36 -144 26
-170 -6 -15 -12 -12 -44 19 -35 34 -132 87 -159 87 -17 0 -16 -15 1 -29 7 -6
28 -44 47 -83 31 -67 34 -81 34 -168 0 -69 -5 -108 -19 -143 l-18 -49 -17 29
c-32 52 -149 138 -166 122 -3 -3 4 -25 16 -48 51 -106 61 -275 23 -396 l-17
-53 -30 29 c-29 29 -145 94 -153 86 -2 -2 6 -26 18 -53 19 -41 23 -67 23 -154
0 -113 -26 -230 -51 -230 -18 0 -39 -39 -27 -51 6 -6 -4 -47 -24 -107 -56
-160 -140 -463 -172 -620 -47 -230 -56 -313 -55 -512 1 -156 4 -198 23 -265
57 -215 174 -342 356 -390 77 -20 240 -19 346 1 46 9 131 31 188 51 99 33 105
33 114 16 19 -36 109 -113 160 -136 82 -39 147 -48 387 -57 170 -6 249 -14
325 -30 195 -43 491 -37 774 15 180 33 244 33 312 -3 133 -69 365 -1 400 118
10 33 9 44 -10 83 -12 24 -50 72 -85 106 -64 61 -65 61 -123 61 -75 0 -198
-30 -309 -75 -78 -31 -101 -36 -213 -42 l-125 -6 35 44 c78 96 115 191 160
404 17 76 31 140 32 140 1 1 22 9 47 18 25 9 68 35 96 56 52 39 52 39 225 61
200 24 397 62 468 89 60 22 99 49 329 223 109 82 188 136 195 131 7 -4 36 -24
64 -46 l53 -39 55 27 c80 39 105 76 105 156 0 52 -6 73 -30 115 -55 97 -160
165 -254 164 -100 -1 -184 -42 -379 -183 l-147 -107 56 112 c32 62 63 131 69
153 14 47 13 47 258 64 84 6 180 14 214 17 l61 5 61 116 60 116 -31 96 c-118
371 -340 588 -650 636 -33 5 -39 11 -66 70 -40 85 -71 129 -139 198 -63 64
-158 117 -210 117 -50 0 -90 -25 -115 -73 -17 -34 -22 -60 -22 -132 -1 -49 3
-111 7 -136 l8 -46 -45 -17 c-112 -43 -187 -136 -246 -305 -30 -83 -42 -106
-61 -114 -35 -13 -245 -2 -394 22 -199 32 -189 21 -88 100 48 38 115 97 148
130 68 70 65 81 -18 73 l-52 -5 60 64 c99 106 165 216 209 351 46 141 42 165
-12 81 -33 -51 -118 -140 -126 -132 -3 3 18 52 45 109 110 228 147 360 135
479 -14 133 -26 144 -43 39 -12 -75 -46 -167 -65 -179 -46 -29 -70 84 -78 376
l-6 230 -33 73 c-19 39 -37 72 -41 72 -4 0 -10 -46 -12 -102 -5 -101 -13 -138
-27 -138 -4 0 -18 48 -30 108 -32 153 -75 278 -118 349 -41 65 -120 159 -128
151 -3 -2 6 -33 20 -67 49 -121 66 -239 32 -229 -7 2 -41 62 -77 133 -71 139
-119 202 -189 247 -46 28 -148 64 -157 55 -3 -3 16 -25 43 -50 27 -25 59 -64
71 -86 21 -37 22 -42 7 -47 -23 -9 -51 6 -144 75 -45 33 -109 74 -144 90 -79
39 -204 71 -276 71 l-56 0 69 -35z"/>
</g>
</svg>
