<?xml version="1.0" standalone="no"?>
<!DOCTYPE svg PUBLIC "-//W3C//DTD SVG 20010904//EN"
 "http://www.w3.org/TR/2001/REC-SVG-20010904/DTD/svg10.dtd">
<svg version="1.0" xmlns="http://www.w3.org/2000/svg"
 width="500.000000pt" height="500.000000pt" viewBox="0 0 500.000000 500.000000"
 preserveAspectRatio="xMidYMid meet">
<metadata>
Created by potrace 1.15, written by Peter Selinger 2001-2017
</metadata>
<g transform="translate(0.000000,500.000000) scale(0.100000,-0.100000)"
fill="#000000" stroke="none">
<path d="M1960 4938 c0 -3 24 -17 53 -32 73 -35 132 -88 124 -109 -10 -26 -49
-20 -124 19 -111 58 -200 84 -290 84 -84 0 -153 -9 -153 -19 0 -4 31 -14 68
-24 38 -10 79 -25 92 -34 20 -14 20 -17 6 -25 -11 -6 -52 0 -123 17 -158 39
-261 43 -356 15 -43 -13 -77 -26 -77 -30 0 -4 39 -12 86 -19 114 -16 166 -37
162 -65 -5 -31 -72 -64 -148 -71 -108 -10 -182 -26 -230 -50 -42 -22 -154
-124 -145 -133 2 -3 44 5 92 17 99 24 171 31 174 16 3 -11 -45 -36 -204 -110
-106 -50 -171 -105 -182 -156 -4 -17 -5 -32 -3 -35 3 -2 27 7 54 20 63 30 124
50 131 42 10 -9 -69 -78 -136 -120 -34 -21 -75 -56 -91 -77 -28 -39 -58 -134
-46 -146 3 -4 19 5 34 19 15 14 39 33 55 43 56 36 28 -14 -63 -109 -49 -52
-91 -105 -94 -118 -20 -96 -15 -109 22 -58 12 16 36 37 53 45 28 15 27 12 -20
-48 -28 -36 -63 -90 -77 -121 -26 -57 -45 -176 -28 -175 5 0 21 26 37 58 15
32 45 78 66 102 l38 44 0 -44 c0 -33 6 -49 27 -69 16 -17 29 -23 35 -17 5 6
36 61 69 123 l59 114 24 -33 c13 -19 24 -38 25 -44 0 -5 2 -16 2 -22 4 -26 21
-11 45 40 49 102 136 160 260 173 l68 7 -30 -31 c-21 -21 -31 -40 -31 -61 0
-31 0 -31 58 -31 94 -1 155 -37 187 -113 l15 -37 -95 0 c-52 0 -95 -4 -95 -8
0 -5 9 -17 21 -28 44 -39 72 -103 77 -174 2 -37 2 -84 -2 -102 l-6 -34 -48 46
c-42 40 -136 90 -148 78 -2 -3 10 -35 27 -71 51 -110 51 -240 -1 -362 l-21
-48 -16 24 c-30 45 -78 91 -116 111 -22 10 -41 18 -43 16 -2 -2 6 -33 18 -68
31 -96 30 -257 -2 -363 l-23 -78 -36 34 c-36 35 -139 93 -148 84 -2 -3 2 -18
10 -34 20 -39 37 -124 37 -187 0 -84 -35 -207 -67 -232 -20 -16 -25 -26 -20
-45 4 -15 -9 -69 -37 -154 -89 -264 -159 -532 -198 -760 -31 -186 -32 -513 -1
-626 57 -204 167 -327 341 -379 66 -20 89 -22 210 -17 141 5 236 24 378 77
l60 23 54 -57 c105 -111 198 -136 510 -136 167 0 242 -4 335 -20 209 -35 499
-25 774 25 180 33 244 33 312 -2 133 -70 365 -2 400 117 10 33 9 44 -10 83
-12 24 -50 72 -85 106 -64 61 -65 61 -123 61 -75 0 -198 -30 -309 -75 -78 -31
-101 -36 -213 -42 l-125 -6 35 44 c78 96 115 191 160 404 17 76 31 140 32 140
1 1 22 9 47 18 25 9 68 35 96 56 52 39 52 39 225 61 200 24 397 62 468 89 60
22 99 49 329 223 109 82 188 136 195 131 7 -4 36 -24 64 -46 l53 -39 55 27
c80 39 105 76 105 156 0 52 -6 73 -30 115 -55 97 -160 165 -254 164 -100 -1
-184 -42 -379 -183 l-147 -107 56 112 c32 62 63 131 69 153 14 47 13 47 258
64 84 6 180 14 214 17 l61 5 61 116 60 116 -31 96 c-73 231 -186 401 -333 507
-84 59 -197 111 -280 126 -43 8 -69 18 -72 28 -61 199 -250 382 -380 367 -91
-10 -129 -88 -120 -246 3 -53 8 -105 12 -116 5 -17 -4 -24 -51 -44 -119 -51
-211 -169 -265 -340 -19 -58 -29 -75 -49 -83 -36 -14 -242 -3 -395 21 -199 32
-189 21 -88 100 48 38 115 97 148 130 68 70 65 81 -18 73 l-52 -5 60 64 c99
106 165 216 209 351 46 142 43 161 -12 80 -35 -52 -119 -139 -126 -131 -3 2
27 70 65 151 93 199 114 273 113 415 0 72 -4 117 -11 124 -13 13 -13 13 -33
-91 -12 -61 -54 -160 -68 -160 -40 0 -56 102 -57 375 -1 239 -1 240 -29 313
-16 39 -32 72 -36 72 -4 0 -10 -40 -13 -88 -3 -49 -12 -104 -19 -123 l-14 -34
-13 80 c-21 138 -60 283 -94 358 -33 70 -125 203 -134 193 -2 -2 9 -45 27 -95
34 -99 44 -196 21 -196 -8 0 -33 46 -60 110 -65 152 -105 211 -183 269 -39 28
-137 71 -145 62 -2 -2 17 -26 42 -53 40 -41 85 -109 85 -128 0 -3 -10 -5 -23
-5 -13 0 -56 27 -101 64 -101 82 -185 131 -264 156 -61 19 -192 38 -192 28z"/>
</g>
</svg>
