<?xml version="1.0" standalone="no"?>
<!DOCTYPE svg PUBLIC "-//W3C//DTD SVG 20010904//EN"
 "http://www.w3.org/TR/2001/REC-SVG-20010904/DTD/svg10.dtd">
<svg version="1.0" xmlns="http://www.w3.org/2000/svg"
 width="1178.000000pt" height="1280.000000pt" viewBox="0 0 1178.000000 1280.000000"
 preserveAspectRatio="xMidYMid meet">
<metadata>
Created by potrace 1.15, written by Peter Selinger 2001-2017
</metadata>
<g transform="translate(0.000000,1280.000000) scale(0.100000,-0.100000)"
fill="#000000" stroke="none">
<path d="M8035 12793 c-95 -12 -263 -50 -350 -80 -206 -71 -367 -164 -620
-359 -71 -55 -141 -107 -155 -115 -41 -26 -99 -41 -127 -34 -22 5 -25 10 -19
38 11 57 98 169 255 329 l154 157 -155 -53 c-84 -30 -171 -61 -193 -70 -78
-33 -204 -127 -288 -216 -107 -112 -190 -236 -273 -407 -35 -73 -93 -193 -128
-265 -35 -73 -74 -142 -86 -153 -22 -20 -22 -20 -37 0 -11 15 -14 38 -10 95 8
114 49 251 152 515 52 131 93 240 92 241 -6 6 -280 -329 -330 -404 -159 -236
-261 -522 -373 -1042 -51 -239 -57 -259 -73 -218 -31 83 -43 182 -48 431 l-6
257 -69 -152 c-87 -194 -123 -294 -148 -419 -18 -89 -20 -135 -19 -466 0 -219
-4 -405 -11 -458 -26 -207 -83 -473 -115 -535 -34 -65 -83 -42 -128 58 -42 94
-75 221 -117 459 -22 124 -41 227 -43 229 -5 5 -67 -406 -73 -486 -13 -166 36
-451 121 -705 53 -160 73 -210 224 -558 44 -103 81 -194 81 -203 0 -26 -65 32
-149 133 -43 51 -133 174 -200 273 -67 99 -124 180 -125 180 -8 0 108 -449
144 -559 112 -338 313 -676 554 -928 l59 -63 -69 0 c-47 0 -83 7 -112 20 l-44
20 -39 -32 c-21 -17 -39 -33 -39 -35 0 -16 117 -151 235 -272 130 -133 298
-282 430 -382 31 -23 54 -44 52 -46 -6 -5 -332 -45 -587 -73 -493 -52 -854
-44 -943 22 -10 8 -39 87 -73 198 -108 359 -191 526 -343 692 -108 117 -288
237 -431 287 -24 8 -31 15 -26 27 4 9 18 71 32 138 34 161 44 423 21 538 -64
310 -259 407 -565 283 -131 -53 -242 -133 -382 -274 -172 -173 -304 -377 -380
-587 l-22 -61 -76 -7 c-335 -31 -697 -183 -982 -413 -99 -80 -280 -268 -358
-370 -146 -192 -293 -454 -383 -678 -37 -94 -123 -347 -133 -391 -6 -26 14
-76 134 -330 78 -164 146 -304 151 -310 5 -6 48 -14 96 -18 285 -22 1069 -119
1202 -149 l53 -12 18 -70 c29 -112 128 -348 248 -592 34 -68 59 -123 56 -123
-2 0 -161 123 -352 274 -388 306 -445 346 -577 410 -429 209 -815 118 -1077
-254 -165 -235 -181 -431 -47 -607 62 -83 199 -173 322 -213 l37 -12 160 111
c87 61 161 111 164 111 3 0 115 -91 248 -203 588 -491 877 -717 996 -776 217
-110 857 -254 1626 -366 l109 -16 56 -51 c130 -119 278 -215 374 -243 31 -9
61 -24 66 -33 13 -26 29 -108 61 -326 95 -635 209 -952 425 -1177 l47 -49
-349 0 -350 0 -120 44 c-233 86 -569 180 -753 212 -114 19 -291 16 -332 -6
-36 -20 -241 -210 -304 -282 -136 -156 -155 -298 -58 -445 126 -189 499 -337
765 -303 116 14 153 26 254 79 120 64 169 75 348 73 188 -1 285 -11 827 -82
746 -98 820 -104 1175 -104 238 0 301 3 420 22 302 47 563 52 1065 22 239 -15
562 -8 685 15 262 48 460 155 624 340 98 110 75 104 187 52 290 -132 639 -234
928 -272 157 -20 423 -21 546 -1 709 114 1093 652 1160 1624 52 771 -124 1860
-519 3200 -50 170 -59 212 -54 253 6 47 5 50 -39 92 -40 40 -47 55 -72 146
-102 380 -85 674 54 971 28 58 50 109 50 112 0 4 -33 -7 -72 -23 -204 -86
-327 -159 -399 -236 -22 -24 -42 -43 -44 -41 -6 7 -35 100 -54 174 -39 157
-46 225 -46 434 1 277 22 386 124 645 22 55 38 101 36 103 -7 7 -213 -102
-271 -144 -73 -52 -162 -147 -195 -209 -13 -25 -27 -45 -30 -45 -13 0 -80 175
-107 275 -24 90 -26 117 -27 280 0 158 3 191 24 270 29 111 81 231 154 355 31
52 55 96 53 97 -7 8 -245 -81 -316 -118 -81 -42 -182 -128 -227 -193 l-20 -30
-12 70 c-17 93 -15 255 3 341 32 154 104 283 234 415 l65 66 -44 6 c-24 3
-136 13 -249 22 -113 9 -206 17 -208 19 -9 8 46 123 82 172 65 88 146 137 282
169 54 13 97 15 198 10 l128 -5 -4 72 c-4 82 -28 139 -86 201 l-37 39 100 -6
c339 -20 587 -193 716 -498 17 -41 34 -78 39 -82 10 -11 124 114 171 187 l38
59 41 -89 c220 -477 275 -594 281 -594 3 0 29 18 57 41 72 57 113 142 115 237
1 68 1 70 22 56 56 -37 167 -212 275 -437 l68 -142 1 135 c1 155 -10 235 -46
340 -48 140 -123 274 -250 443 -40 53 -69 97 -64 97 28 0 117 -80 194 -174 50
-62 87 -100 87 -89 -2 69 -22 235 -34 277 -23 79 -81 159 -213 298 -66 69
-140 150 -163 179 -42 53 -94 149 -85 158 9 8 111 -67 220 -162 60 -53 110
-95 111 -94 8 7 -51 280 -70 327 -57 140 -153 241 -363 381 -74 50 -153 107
-175 127 -39 35 -98 116 -98 134 0 30 155 -27 356 -131 85 -44 154 -79 154
-78 0 22 -54 186 -75 227 -35 70 -137 171 -240 239 -44 29 -206 115 -360 191
-203 100 -292 149 -325 180 -41 38 -43 42 -26 52 42 24 277 -26 559 -119 93
-30 170 -53 172 -51 6 6 -143 199 -198 256 -106 110 -262 198 -422 240 -44 12
-163 33 -265 47 -219 31 -256 39 -336 75 -105 47 -185 138 -154 175 46 55 230
98 521 121 112 8 205 17 206 18 7 7 -291 127 -358 145 -223 60 -413 52 -840
-34 -220 -44 -285 -51 -333 -35 -20 6 -36 15 -36 19 0 11 66 46 133 71 31 12
142 43 245 70 134 34 180 49 162 54 -14 3 -95 18 -180 33 -197 34 -436 38
-570 10 -132 -28 -270 -78 -446 -161 -182 -86 -258 -109 -305 -96 -134 39 -38
141 296 315 83 43 152 79 154 81 5 5 -244 2 -284 -3z"/>
</g>
</svg>
